{"title":"One Nenokkadine (2015) HQ 1080p Blu-ray x264 DTS-HDMA-DDR","uid":15334933,"size":16877876286,"categoryP":"video","categoryS":"hd___movies","magnet":"?xt=urn:btih:03735612397b0e5bfc79635d4bf1c144e6f5fab4&amp;dn=One+Nenokkadine+%282015%29+HQ+1080p+Blu-ray+x264+DTS-HDMA-DDR&amp;tr=udp%3A%2F%2Ftracker.leechers-paradise.org%3A6969&amp;tr=udp%3A%2F%2Fzer0day.ch%3A1337&amp;tr=udp%3A%2F%2Fopen.demonii.com%3A1337&amp;tr=udp%3A%2F%2Ftracker.coppersurfer.tk%3A6969&amp;tr=udp%3A%2F%2Fexodus.desync.com%3A6969","seeders":3,"leechers":6,"uploader":"SaM","files":3,"time":1468776181,"description":"- BollyWooD Movie-\r\n\r\nOne Nenokkadine\r\n\r\nHQ 1080P / x264 / DTS-HDMA 5.1\r\n\r\nEnglish subtitle(s) \r\n \nhttp://extraimago.com/image/aVAJ \nhttp://extraimago.com/image/aVAK \nhttp://extraimago.com/image/aVAZ \nhttp://extraimago.com/image/aVAe \nhttp://extraimago.com/image/aVA4 \nhttp://extraimago.com/image/aVAB \nhttp://extraimago.com/image/aVAC \nhttp://extraimago.com/image/aVAY \nhttp://extraimago.com/image/aVAp \nhttp://extraimago.com/image/aVAr \nhttp://extraimago.com/image/aVAG \nhttp://extraimago.com/image/aVAP \nhttp://extraimago.com/image/aVAX \nhttp://extraimago.com/image/aVAg\r\n\r\nSource : *** DDR Blu-ray ***\r\nFormat : Matroska\r\nFile size : 15.6 GiB\r\nDuration : 2h 56mn\r\nOverall bit rate : 12.7 Mbps\r\nEncoded date : UTC 2016-07-17 02:12:45\r\n\r\n\r\n\r\nVideo\r\nFormat : AVC\r\nFormat/Info : Advanced Video Codec\r\nFormat profile :   \r\nDuration : 2h 56mn\r\nBit rate : 10 000 Kbps\r\nWidth : 1 920 pixels\r\nHeight : 816 pixels\r\nDisplay aspect ratio : 2.35:1\r\nFrame rate mode : Constant\r\nFrame rate : 24.000 fps\r\nColor space : YUV\r\nChroma subsampling : 4:2:0\r\nBit depth : 8 bits\r\nScan type : Progressive\r\nBits/(Pixel*Frame) : 0.266\r\nStream size : 12.3 GiB (79%)\r\nColor primaries : BT.709\r\n\r\nAudio\r\nFormat : DTS\r\nFormat/Info : Digital Theater Systems\r\nFormat profile : MA / Core\r\nBit rate mode : Variable / Constant\r\nDuration : 2h 56mn\r\nBit rate mode : Variable / Constant\r\nBit rate : 2 675 Kbps / 1 509 Kbps\r\nChannel(s) : 6 channels\r\nChannel positions : Front: L C R, Side: L R, LFE\r\nSampling rate : 48.0 KHz\r\nFrame rate : 93.750 fps (512 spf)\r\nBit depth : 24 bits\r\nCompression mode : Lossless / Lossy\r\nStream size : 3.29 GiB (21%)\r\nLanguage : Telugu\r\nDefault : Yes\r\nForced : No\r\n\r\nChapters : YES\r\n\r\nSample : Included\r\n\r\nA DDR Rxclusive Encode","torrent":{"xt":"urn:btih:03735612397b0e5bfc79635d4bf1c144e6f5fab4","amp;dn":"One+Nenokkadine+%282015%29+HQ+1080p+Blu-ray+x264+DTS-HDMA-DDR","amp;tr":["udp%3A%2F%2Ftracker.leechers-paradise.org%3A6969","udp%3A%2F%2Fzer0day.ch%3A1337","udp%3A%2F%2Fopen.demonii.com%3A1337","udp%3A%2F%2Ftracker.coppersurfer.tk%3A6969","udp%3A%2F%2Fexodus.desync.com%3A6969"],"infoHash":"03735612397b0e5bfc79635d4bf1c144e6f5fab4","infoHashBuffer":{"type":"Buffer","data":[3,115,86,18,57,123,14,91,252,121,99,93,75,241,193,68,230,245,250,180]},"announce":[],"urlList":[]}}